<svg width="28" height="34" viewBox="0 0 28 34" fill="none" xmlns="http://www.w3.org/2000/svg">
<path d="M13.8981 7.42947V18.5031C13.8981 19.2437 13.2959 19.8441 12.5532 19.8441H1.3449C0.602217 19.8441 0 20.4446 0 21.1851V32.3266C0 33.0917 0.622391 33.7123 1.38973 33.7123H13.8981C21.6088 33.7123 27.8529 27.4513 27.7954 19.7495C27.7431 12.6757 22.294 6.91319 15.4051 6.09742C14.6034 6.0028 13.8981 6.62488 13.8981 7.42947Z" fill="#6C35F3"/>
<path d="M1.27542 18.18L12.2147 7.27171C12.6854 6.80236 12.3522 6 11.6865 6H1.3449C0.602218 6 0 6.60047 0 7.341V17.6525C0 18.3163 0.8047 18.6486 1.27542 18.1792V18.18Z" fill="#D91E47"/>
</svg>
