<svg width="193" height="41" viewBox="0 0 193 41" fill="none" xmlns="http://www.w3.org/2000/svg">
<g clip-path="url(#clip0_2_65)">
<path d="M53.0125 6H57.2228V33.2073H53.0125V30.4091C51.427 32.6121 49.1534 33.7132 46.1908 33.7132C43.5137 33.7132 41.2267 32.7223 39.3303 30.7399C37.4333 28.7575 36.4844 26.3414 36.4844 23.4911C36.4844 20.6407 37.4325 18.1926 39.3303 16.2229C41.2267 14.2538 43.5137 13.2689 46.1908 13.2689C49.1534 13.2689 51.427 14.3574 53.0125 16.5335V6ZM42.4483 27.9409C43.6176 29.1203 45.0858 29.7096 46.8528 29.7096C48.6199 29.7096 50.0881 29.1203 51.2574 27.9409C52.4267 26.7623 53.0117 25.2783 53.0117 23.4903C53.0117 21.7023 52.4267 20.219 51.2574 19.0397C50.0881 17.8611 48.6191 17.2711 46.8528 17.2711C45.0865 17.2711 43.6176 17.8611 42.4483 19.0397C41.279 20.219 40.6939 21.7023 40.6939 23.4903C40.6939 25.2783 41.279 26.7616 42.4483 27.9409Z" fill="#0B0A1B"/>
<path d="M76.6468 13.7734H80.8571V33.2074H76.6468V30.4092C75.0613 32.6122 72.7876 33.7133 69.8251 33.7133C67.148 33.7133 64.8609 32.7224 62.9646 30.74C61.0676 28.7575 60.1187 26.3415 60.1187 23.4912C60.1187 20.6408 61.0668 18.1927 62.9646 16.223C64.8609 14.2539 67.148 13.269 69.8251 13.269C72.7876 13.269 75.0613 14.3575 76.6468 16.5336V13.7742V13.7734ZM66.0825 27.941C67.2519 29.1204 68.7201 29.7097 70.4871 29.7097C72.2542 29.7097 73.7223 29.1204 74.8917 27.941C76.061 26.7624 76.646 25.2784 76.646 23.4904C76.646 21.7024 76.061 20.2191 74.8917 19.0398C73.7223 17.8612 72.2534 17.2712 70.4871 17.2712C68.7208 17.2712 67.2519 17.8612 66.0825 19.0398C64.9132 20.2191 64.3282 21.7024 64.3282 23.4904C64.3282 25.2784 64.9132 26.7617 66.0825 27.941Z" fill="#0B0A1B"/>
<path d="M96.3826 17.8159H91.5491V27.144C91.5491 27.9471 91.7307 28.5237 92.0946 28.8739C92.4584 29.224 92.9971 29.4177 93.7122 29.4572C94.4265 29.4959 95.3164 29.49 96.3826 29.4378V33.2083C93.16 33.5971 90.8475 33.3185 89.4436 32.3724C88.0404 31.427 87.3388 29.6844 87.3388 27.1447V17.8166H83.7524V13.7742H87.3388V9.57618L91.5491 8.33203V13.7735H96.3826V17.8159Z" fill="#0B0A1B"/>
<path d="M103.489 17.0386C104.554 14.6285 106.555 13.4238 109.492 13.4238V17.9713C107.88 17.8677 106.477 18.2499 105.281 19.1178C104.086 19.9865 103.488 21.4177 103.488 23.4128V33.2072H99.2778V13.7732H103.488V17.0378L103.489 17.0386Z" fill="#0B0A1B"/>
<path d="M127.247 13.7734H131.73L124.245 33.8295C122.374 38.856 119.203 41.24 114.734 40.9815V37.0561C116.059 37.1336 117.125 36.855 117.93 36.2202C118.736 35.5847 119.398 34.5939 119.918 33.2469L120.113 32.858L111.85 13.7742H116.449L122.261 27.8815L127.247 13.7742V13.7734Z" fill="#0B0A1B"/>
<path d="M142.02 33.7123C139.083 33.7123 136.634 32.7282 134.672 30.7584C132.71 28.7894 131.729 26.3666 131.729 23.4902C131.729 20.6137 132.709 18.159 134.672 16.2026C136.634 14.2462 139.083 13.2681 142.02 13.2681C143.917 13.2681 145.646 13.7218 147.205 14.6284C148.764 15.5358 149.934 16.7532 150.713 18.2819L147.088 20.3806C146.645 19.4478 145.977 18.7162 145.08 18.1843C144.184 17.6539 143.151 17.3879 141.981 17.3879C140.265 17.3879 138.829 17.9712 137.673 19.1372C136.517 20.3031 135.939 21.7543 135.939 23.4902C135.939 25.226 136.517 26.6773 137.673 27.8432C138.829 29.0091 140.265 29.5925 141.981 29.5925C143.124 29.5925 144.157 29.3205 145.08 28.7759C146.002 28.2321 146.698 27.5065 147.165 26.5991L150.791 28.659C149.958 30.2138 148.764 31.4445 147.204 32.3512C145.645 33.2578 143.917 33.7116 142.02 33.7116L142.02 33.7123Z" fill="#0B0A1B"/>
<path d="M157.515 19.1113C157.515 19.7513 157.875 20.2564 158.594 20.6274C159.314 20.9984 160.178 21.3389 161.186 21.648C162.194 21.958 163.227 22.2753 164.285 22.6001C165.343 22.925 166.227 23.5262 166.936 24.4045C167.645 25.2829 168 26.3907 168 27.7272C168 29.5927 167.279 31.0574 165.837 32.119C164.395 33.1821 162.583 33.7125 160.399 33.7125C158.476 33.7125 156.826 33.3102 155.449 32.5079C154.071 31.7048 153.071 30.5902 152.447 29.1651L156.073 27.0664C156.748 28.9319 158.19 29.8646 160.399 29.8646C162.609 29.8646 163.713 29.139 163.713 27.6877C163.713 27.0657 163.356 26.5605 162.641 26.1717C161.926 25.7828 161.064 25.4341 160.056 25.1242C159.048 24.8143 158.015 24.4969 156.957 24.1721C155.899 23.848 155.013 23.2639 154.299 22.4221C153.584 21.5802 153.227 20.5112 153.227 19.2156C153.227 17.4276 153.909 15.9898 155.273 14.9013C156.637 13.8129 158.333 13.269 160.36 13.269C161.971 13.269 163.406 13.6252 164.667 14.3381C165.928 15.0511 166.895 16.0419 167.571 17.3114L164.024 19.2938C163.348 17.8165 162.127 17.0782 160.36 17.0782C159.554 17.0782 158.878 17.2511 158.333 17.596C157.787 17.9417 157.514 18.4468 157.514 19.1121L157.515 19.1113Z" fill="#0B0A1B"/>
<path d="M13.8981 7.42947V18.5031C13.8981 19.2437 13.2959 19.8441 12.5532 19.8441H1.3449C0.602217 19.8441 0 20.4446 0 21.1851V32.3266C0 33.0917 0.622391 33.7123 1.38973 33.7123H13.8981C21.6088 33.7123 27.8529 27.4513 27.7954 19.7495C27.7431 12.6757 22.294 6.91319 15.4051 6.09742C14.6034 6.0028 13.8981 6.62488 13.8981 7.42947Z" fill="#6C35F3"/>
<path d="M1.27542 18.18L12.2147 7.27171C12.6854 6.80236 12.3522 6 11.6865 6H1.3449C0.602218 6 0 6.60047 0 7.341V17.6525C0 18.3163 0.8047 18.6486 1.27542 18.1792V18.18Z" fill="#D91E47"/>
</g>
<rect x="172" y="6" width="21" height="14" rx="2" fill="#D91E47"/>
<path d="M178.42 8.4C179.677 8.4 180.725 8.83767 181.566 9.713C182.415 10.5797 182.84 11.6587 182.84 12.95C182.84 14.2413 182.415 15.3247 181.566 16.2C180.725 17.0667 179.677 17.5 178.42 17.5H174.78V8.4H178.42ZM178.42 15.498C179.139 15.498 179.72 15.2683 180.162 14.809C180.613 14.341 180.838 13.7213 180.838 12.95C180.838 12.1787 180.613 11.5633 180.162 11.104C179.72 10.636 179.139 10.402 178.42 10.402H176.86V15.498H178.42ZM186.864 17.682C185.937 17.682 185.161 17.4827 184.537 17.084C183.922 16.6767 183.484 16.1263 183.224 15.433L185.018 14.393C185.382 15.2337 186.019 15.654 186.929 15.654C187.753 15.654 188.164 15.407 188.164 14.913C188.164 14.6443 188.03 14.4363 187.761 14.289C187.501 14.133 187.007 13.9553 186.279 13.756C185.898 13.652 185.564 13.535 185.278 13.405C184.992 13.275 184.711 13.106 184.433 12.898C184.165 12.6813 183.957 12.4127 183.809 12.092C183.671 11.7713 183.601 11.403 183.601 10.987C183.601 10.1463 183.9 9.47467 184.498 8.972C185.105 8.46933 185.824 8.218 186.656 8.218C187.402 8.218 188.06 8.39567 188.632 8.751C189.204 9.09767 189.655 9.60467 189.984 10.272L188.229 11.299C188.065 10.9523 187.861 10.6923 187.618 10.519C187.376 10.337 187.055 10.246 186.656 10.246C186.344 10.246 186.102 10.3153 185.928 10.454C185.764 10.584 185.681 10.7443 185.681 10.935C185.681 11.1603 185.785 11.3553 185.993 11.52C186.21 11.6847 186.652 11.8667 187.319 12.066C187.683 12.1787 187.965 12.2697 188.164 12.339C188.364 12.4083 188.615 12.5253 188.918 12.69C189.23 12.846 189.464 13.015 189.62 13.197C189.785 13.3703 189.928 13.6043 190.049 13.899C190.179 14.185 190.244 14.5143 190.244 14.887C190.244 15.7537 189.932 16.4383 189.308 16.941C188.684 17.435 187.87 17.682 186.864 17.682Z" fill="white"/>
<defs>
<clipPath id="clip0_2_65">
<rect width="168" height="35" fill="white" transform="translate(0 6)"/>
</clipPath>
</defs>
</svg>
