<svg width="40" height="40" viewBox="0 0 40 40" fill="none" xmlns="http://www.w3.org/2000/svg">
<g clip-path="url(#clip0_2_2510)">
<path d="M2.37134e-08 20.0008C2.42344e-08 16.0452 1.17296 12.1785 3.37056 8.88954C5.56815 5.60059 8.69168 3.03716 12.3462 1.52341C16.0006 0.00966378 20.0219 -0.386419 23.9015 0.385253C27.7811 1.15693 31.3447 3.06169 34.1417 5.85869C36.9388 8.65568 38.8436 12.2193 39.6153 16.0989C40.3871 19.9784 39.9911 23.9997 38.4774 27.6542C36.9637 31.3087 34.4003 34.4323 31.1114 36.6299C27.8225 38.8276 23.9557 40.0006 20.0002 40.0007C17.3737 40.0008 14.7729 39.4836 12.3463 38.4786C9.91972 37.4736 7.71486 36.0004 5.85765 34.1432C4.00043 32.2861 2.52723 30.0812 1.52217 27.6547C0.517107 25.2281 -0.000127874 22.6273 2.37134e-08 20.0008Z" fill="white"/>
<path d="M19.9999 0.666992C16.1761 0.666992 12.4382 1.80088 9.25886 3.92526C6.0795 6.04965 3.60148 9.06912 2.13818 12.6018C0.674881 16.1346 0.292014 20.0219 1.038 23.7722C1.78398 27.5225 3.62531 30.9674 6.32914 33.6712C9.03297 36.375 12.4779 38.2164 16.2282 38.9624C19.9785 39.7083 23.8658 39.3255 27.3985 37.8622C30.9312 36.3989 33.9507 33.9209 36.0751 30.7415C38.1995 27.5621 39.3334 23.8242 39.3334 20.0004C39.3335 17.4615 38.8334 14.9474 37.8619 12.6017C36.8903 10.2561 35.4662 8.12472 33.6709 6.32943C31.8756 4.53414 29.7443 3.11005 27.3986 2.13849C25.0529 1.16692 22.5389 0.666907 19.9999 0.666992ZM19.9999 38.1974C16.3994 38.1974 12.8798 37.1297 9.88609 35.1294C6.89238 33.1291 4.55907 30.2859 3.18122 26.9595C1.80337 23.6331 1.44286 19.9728 2.14528 16.4414C2.8477 12.9101 4.58151 9.6664 7.12745 7.12046C9.67338 4.57452 12.9171 2.84072 16.4484 2.13829C19.9797 1.43587 23.6401 1.79638 26.9665 3.17423C30.2929 4.55208 33.1361 6.88539 35.1364 9.8791C37.1367 12.8728 38.2044 16.3925 38.2044 19.993C38.2046 22.3837 37.7339 24.7511 36.8191 26.9599C35.9043 29.1687 34.5634 31.1757 32.873 32.8663C31.1825 34.5568 29.1756 35.8978 26.9668 36.8127C24.758 37.7276 22.3907 38.1985 19.9999 38.1984V38.1974Z" fill="#0080C9"/>
<path d="M3.37939 19.6316L14.4575 21.9363C14.4575 21.9363 13.9245 25.0408 16.4252 26.3184C18.8633 27.5649 21.2232 25.4638 21.4037 23.6213C21.5842 21.7788 21.639 20.8693 21.639 20.8693L36.057 18.6347L35.0221 22.7572L28.9537 23.5359C28.9537 23.5359 29.0556 33.3672 18.3696 34.0417C14.8259 34.269 10.9764 31.9967 9.29076 29.1104C8.13944 27.1596 7.58857 24.9128 7.70702 22.6507L3.40277 21.0663L3.37939 19.6316ZM29.5026 23.967C29.351 25.4314 29.011 26.8702 28.4911 28.2476C27.5822 30.5289 25.5823 32.1363 23.8184 33.2023C23.685 33.2809 31.5722 31.4933 31.5722 31.4933V23.6849L29.5026 23.967ZM17.1936 17.8125L16.9738 25.9354H18.1499L18.0164 17.6642L17.1933 17.8132M28.828 7.8715V7.49529L17.7188 9.43188V8.94497L18.5576 8.83525L19.1454 6.60068H17.6951L17.5542 4.67383H17.2877L17.1936 6.59451H15.7273L16.2762 8.85246L17.1621 8.94659V9.51043L8.24781 11.1253V11.4626L28.8277 7.87183" fill="#E52721"/>
<path d="M9.98815 11.7836L27.8797 8.59277C27.8797 8.59277 25.512 10.7644 25.6844 14.0023C25.8568 17.2402 27.4012 18.9885 27.4012 18.9885C27.4012 18.9885 23.5592 17.2399 19.6237 17.2399C15.6882 17.2399 12.8505 18.9574 11.7757 20.3058C11.6738 20.4311 9.70607 18.9885 9.21137 15.9704C8.85853 13.8377 9.9875 11.783 9.9875 11.783" fill="#0080C9"/>
<path d="M19.3259 10.7416L19.5924 10.7338C20.0768 10.6637 20.5525 10.5428 21.0116 10.3731C21.2377 10.2711 21.4576 10.1559 21.6702 10.0281C21.7172 10.0359 21.9055 10.1534 21.0116 10.7338C20.3648 11.1034 19.639 11.313 18.8948 11.3453C18.8948 11.3453 18.9273 11.3219 19.036 11.22C19.1506 11.0722 19.248 10.9118 19.3262 10.7419M25.8962 9.79338C25.669 9.91868 25.5589 9.96575 25.5589 9.96575C25.6579 9.99558 25.7617 10.0066 25.8647 9.99821L25.9274 9.96575C25.8065 10.1015 25.6437 10.1929 25.4648 10.2254C25.1746 10.2725 25.1275 10.2725 25.1275 10.2725C25.0752 10.2951 25.0274 10.327 24.9863 10.3666C25.1014 10.3878 25.2142 10.4193 25.3236 10.4608C25.3488 10.4699 25.3701 10.4872 25.3844 10.5099C25.3986 10.5326 25.4049 10.5594 25.4022 10.5861C25.2218 10.5686 25.04 10.5738 24.861 10.6016C24.7825 10.6487 24.5708 10.6341 24.6572 10.9857C24.7513 11.3385 24.8688 11.8945 24.4533 12.1695C24.0378 12.4444 23.6379 11.9812 23.5753 11.8166C23.5126 11.6443 23.4029 11.0483 23.3481 10.9077C23.2854 10.7665 23.0884 10.6646 22.9952 10.8136C22.9011 10.9704 22.9952 11.182 23.1364 11.5034C23.2776 11.8248 23.5834 12.4756 23.4893 12.8125C23.3951 13.1495 23.215 13.2436 23.4266 13.6435C23.6006 13.9309 23.8235 14.1857 24.0852 14.3963C24.0852 14.3963 24.1323 14.5216 24.0382 14.5531C23.944 14.5845 23.8265 14.5686 23.8658 14.6001C23.9928 14.6957 24.1404 14.7602 24.2969 14.7884C24.4041 14.802 24.5129 14.7968 24.6182 14.7728L24.7124 14.7572C24.7124 14.7572 24.6968 15.0315 24.5556 15.1257C24.4776 15.18 24.3892 15.2174 24.2959 15.2354C24.3676 15.4425 24.483 15.6317 24.6341 15.7904C24.838 15.9472 24.9084 16.0021 24.9084 16.0021C24.863 16.0662 24.8032 16.1188 24.7337 16.1556C24.6642 16.1923 24.5871 16.2123 24.5085 16.2137C24.3448 16.1943 24.1899 16.129 24.0615 16.0255C23.957 16.1089 23.8646 16.2066 23.7872 16.3157C23.779 16.3501 23.7776 16.3858 23.7832 16.4208C23.7888 16.4558 23.8012 16.4893 23.8197 16.5195C23.8353 16.5666 23.9294 16.5666 23.945 16.6292L23.9606 16.6919C23.9606 16.6919 24.7916 16.6594 24.8695 16.9191C24.9474 17.1788 24.8068 17.2249 24.8068 17.2249C24.8068 17.2249 24.7283 17.0996 24.65 17.0996H24.4777C24.4621 17.1252 24.4406 17.1466 24.415 17.1622L24.368 17.1947C24.368 17.1947 24.1083 16.935 23.9681 16.935C23.8278 16.935 23.6467 16.935 23.6152 16.9976C23.5837 17.0603 23.5996 17.1389 23.5055 17.1544C23.4143 17.1628 23.3224 17.1628 23.2312 17.1544C23.2224 17.2011 23.2224 17.249 23.2312 17.2956L23.2468 17.3583C23.2468 17.3583 22.941 17.2797 22.9254 17.1152C22.9098 16.9428 22.9725 16.9035 23.0196 16.9035H23.0666L23.0342 16.7311C22.8792 16.7212 22.7236 16.7321 22.5716 16.7636C22.4775 16.8107 22.3119 16.9584 22.1717 16.9204C22.0305 16.8733 21.9678 16.7165 21.9993 16.6607L22.0318 16.5981L21.7887 16.6136C21.7887 16.6136 21.914 16.2923 22.1727 16.2923C22.3182 16.2933 22.4611 16.331 22.5882 16.402C22.6848 16.4423 22.791 16.4536 22.8939 16.4345C22.9645 16.3728 23.0213 16.2969 23.0605 16.2118C23.0996 16.1266 23.1203 16.0341 23.1212 15.9404V15.7288L22.8469 15.7132L22.8618 15.2656C22.8391 15.1973 22.799 15.136 22.7456 15.0879C22.6921 15.0398 22.627 15.0063 22.5567 14.9909C22.3295 14.9585 21.9688 14.8812 21.9136 14.7313C21.8827 14.6668 21.8616 14.5981 21.851 14.5274H21.6478C21.537 14.3209 21.488 14.0868 21.5066 13.8532C21.5692 13.563 21.7182 13.4062 21.8438 13.3906L21.9691 13.3751C21.9691 13.3751 21.9847 13.1008 21.5222 12.944C21.2325 12.8391 20.9209 12.8092 20.6166 12.8572C20.3123 12.9051 20.025 13.0294 19.7816 13.2183C19.2564 13.6808 18.1197 15.2331 17.3825 15.7116C16.6453 16.19 16.1814 16.4328 15.5647 16.4955C15.3002 16.5388 15.0309 16.5441 14.7649 16.5111C14.8435 16.2149 14.8701 15.9074 14.8434 15.6022C14.8116 15.4671 14.7407 15.3444 14.6396 15.2493C14.6321 15.4974 14.6006 15.7442 14.5454 15.9862L14.4828 16.1115C14.5343 16.2935 14.5343 16.4862 14.4828 16.6682C14.4172 16.7744 14.3225 16.8597 14.21 16.9139C14.0975 16.9681 13.9719 16.9889 13.8479 16.974C13.7423 16.9419 13.635 16.9157 13.5265 16.8954C13.5736 16.911 13.5265 17.2168 13.448 17.3424C13.3643 17.4513 13.2667 17.5489 13.1578 17.6326C13.3013 17.6405 13.4453 17.6405 13.5888 17.6326C13.6515 17.617 13.832 17.3268 14.1611 17.3894C14.4825 17.4521 14.6081 17.5777 14.6393 17.6952C14.6717 17.8205 14.5922 17.8049 14.5295 17.7738C14.4612 17.7516 14.3897 17.7406 14.3179 17.7413C14.3179 17.7413 14.2238 18.0786 14.0436 18.1253C13.9696 18.1463 13.8915 18.1487 13.8163 18.1322C13.7411 18.1158 13.6711 18.0811 13.6125 18.0312C13.3276 18.0521 13.0447 18.094 12.766 18.1565C12.6248 18.2191 12.5543 18.2506 12.5543 18.3996C12.5543 18.5564 12.6796 18.7054 12.617 18.7995C12.5921 18.8354 12.5575 18.8633 12.5172 18.88C12.4769 18.8967 12.4327 18.9014 12.3897 18.8937H12.2148C12.2148 18.8937 12.1823 19.0975 12.2472 19.1368C12.3099 19.1839 12.1846 19.2621 12.059 19.1839C11.9334 19.1056 11.7532 18.6586 11.9178 18.5252C12.0901 18.384 12.1775 18.337 12.1775 18.235C12.176 18.1634 12.1651 18.0922 12.145 18.0234C12.0628 17.9894 11.9742 17.9733 11.8853 17.9763C11.7129 17.9763 11.6422 17.9607 11.6422 18.0234C11.6439 18.0753 11.6252 18.1258 11.5899 18.164C11.5547 18.2022 11.5058 18.2249 11.4539 18.2272C11.2971 18.2428 11.1796 18.1802 11.1796 18.0549C11.1796 17.9296 11.2267 17.851 11.164 17.851C11.1254 17.8516 11.0872 17.8602 11.0521 17.8764C11.017 17.8926 10.9857 17.9161 10.9602 17.9452C10.9131 18.0078 10.8349 17.6394 10.9927 17.5612C11.0841 17.5285 11.1818 17.5171 11.2783 17.528C11.3748 17.5388 11.4675 17.5716 11.5493 17.6238C11.6354 17.6969 11.7425 17.7408 11.8551 17.7491C11.9463 17.7583 12.0382 17.7583 12.1294 17.7491C12.1294 17.7491 12.1921 17.5767 12.0823 17.4894C11.9832 17.3773 11.8468 17.3049 11.6983 17.2856C11.5416 17.2856 11.2828 17.318 11.1887 17.1444C11.0946 16.9707 11.1887 16.9561 11.2043 16.8701C11.2199 16.7759 11.1718 16.6977 11.0475 16.6977C10.9232 16.6977 10.9534 16.588 11.0475 16.5409C11.096 16.5174 11.1431 16.4912 11.1887 16.4624C11.1887 16.4624 11.3926 16.3371 11.5101 16.3997C11.7038 16.5105 11.8595 16.6772 11.9571 16.8779C12.0022 16.9898 12.0712 17.0905 12.1592 17.173C12.2472 17.2556 12.3521 17.318 12.4667 17.356C12.5908 17.4027 12.7279 17.4003 12.8503 17.3493C12.9727 17.2983 13.071 17.2026 13.1253 17.0817C13.1879 16.8545 13.235 16.6192 13.235 16.6192C13.235 16.6192 13.3292 16.5406 13.4389 16.4468C13.6158 16.2105 13.7365 15.9369 13.7917 15.647L13.8242 15.4038C13.6286 15.7682 13.3424 16.076 12.9932 16.2975C12.4836 16.5718 12.4209 16.4698 12.4209 15.9917C12.4498 15.333 12.5727 14.6819 12.7861 14.058C12.9585 13.7208 13.1074 13.6111 13.2016 13.4309C13.2957 13.2426 13.2642 13.1095 13.1389 13.1407C13.0136 13.1719 12.9351 13.2504 12.7861 13.2034C12.7073 13.1854 12.6345 13.1477 12.5744 13.0936C12.771 13.0333 12.9624 12.9573 13.1467 12.8664C13.2228 12.8256 13.2916 12.7726 13.3506 12.7096C13.3506 12.7096 13.1234 12.4499 12.9822 12.4499C12.874 12.465 12.7638 12.4539 12.6608 12.4175C12.5018 12.365 12.331 12.3602 12.1693 12.4035C12.0126 12.4506 11.9262 12.5132 11.9097 12.436C11.9668 12.3078 12.056 12.1965 12.1686 12.1127C12.2812 12.029 12.4135 11.9757 12.5527 11.9578L12.9997 11.9423L13.0623 11.8952C13.0623 11.8952 13.0299 11.7069 13.3681 11.6913C13.7063 11.6758 14.6461 11.6589 14.8029 11.6287C14.9473 11.5869 15.0867 11.529 15.2183 11.4563C15.2183 11.4563 15.2969 11.5975 15.2183 11.6836C15.1247 11.7785 15.0087 11.8486 14.8811 11.8874C14.834 11.8874 15.0534 12.4597 14.834 12.781C14.6224 13.1024 14.45 13.6276 14.5438 13.8552C14.5664 13.9464 14.6172 14.0281 14.689 14.0887C14.7609 14.1493 14.85 14.1856 14.9437 14.1924C15.0392 14.2147 15.1385 14.2147 15.2339 14.1924L15.2664 14.6706C15.3791 14.5878 15.47 14.4789 15.5315 14.3533C15.5929 14.2277 15.623 14.0891 15.6192 13.9493C15.6037 13.4711 15.5095 13.3614 15.4154 13.2595C15.3235 13.1652 15.252 13.0531 15.2052 12.9301C15.1583 12.8071 15.1372 12.6758 15.1431 12.5443C15.1489 12.4128 15.1817 12.2839 15.2393 12.1656C15.2969 12.0473 15.3782 11.942 15.478 11.8562C16.1522 11.2369 16.8501 11.3151 17.0774 11.2525C17.5652 11.1633 18.045 11.0349 18.5121 10.8685C18.8335 10.6961 18.9432 10.5312 18.9747 10.5783C18.8926 10.8448 18.7312 11.08 18.5121 11.2525C18.0576 11.5668 17.5374 11.7733 16.991 11.8562L16.4499 11.9033C16.4499 11.9033 16.544 12.3188 16.4028 12.5071C16.2616 12.6953 16.2146 12.7814 16.0815 12.8284L15.9403 12.8755C16.0187 13.2387 16.0346 13.6126 15.9873 13.9811C15.8932 14.4437 15.7835 14.5378 15.7835 14.5378C15.8805 14.5123 15.9701 14.4642 16.045 14.3974C16.1199 14.3307 16.178 14.2472 16.2146 14.1538C16.313 13.8451 16.3503 13.5202 16.3243 13.1972C16.3094 13.1214 16.3148 13.043 16.3399 12.97C16.4906 12.8501 16.6345 12.7219 16.7709 12.586C16.8408 12.4594 16.8683 12.3138 16.8495 12.1705L17.3435 12.0919C17.3597 12.2344 17.3204 12.3776 17.2338 12.4918C17.151 12.5943 17.0466 12.6774 16.928 12.7349C16.881 12.7505 16.8956 13.0251 16.7868 13.1819L16.6771 13.3387C16.7187 13.4839 16.7298 13.6361 16.7096 13.7857C16.6747 13.8928 16.6273 13.9954 16.5684 14.0915C16.5684 14.0915 16.9056 13.8876 16.9524 13.6916C16.9995 13.4877 17.015 13.3858 17.015 13.3858C17.015 13.3858 17.1874 13.3072 17.2267 13.1975C17.2419 13.0624 17.2258 12.9255 17.1796 12.7976C17.3566 12.6812 17.487 12.5064 17.548 12.3035C17.5951 12.0293 17.548 12.0134 17.548 12.0134L17.932 11.9809C17.9336 12.1736 17.8907 12.3641 17.8067 12.5376C17.6814 12.7259 17.6185 12.7414 17.6185 12.7414C17.644 12.8846 17.6386 13.0316 17.6029 13.1725C17.5857 13.2131 17.56 13.2494 17.5275 13.2792C17.495 13.3089 17.4565 13.3313 17.4146 13.3449C17.4057 13.4624 17.3737 13.577 17.3205 13.6821C17.2419 13.8074 17.1952 13.886 17.1952 13.886C17.8817 13.5965 18.5404 13.2449 19.1629 12.8356C19.7667 12.373 20.684 11.5105 21.3034 11.5576C21.9227 11.6047 22.1499 11.6829 22.3931 11.9416C22.6362 12.2003 22.7303 12.3886 22.8241 12.2789C22.918 12.1692 22.8397 12.0046 22.7771 11.7378C22.7144 11.4781 22.3145 10.7656 22.8095 10.5224C23.3046 10.2793 23.5935 10.601 23.6876 11.0947C23.7817 11.5884 23.8288 11.8786 24.0404 11.9257C24.2521 11.9728 24.4248 11.7689 24.4559 11.5884C24.4777 11.5058 24.476 11.4188 24.4511 11.3371C24.4261 11.2554 24.3789 11.1822 24.3147 11.1259C24.1565 10.9731 24.062 10.766 24.0504 10.5463C24.0388 10.3266 24.1109 10.1107 24.2521 9.94205C24.6832 9.41684 25.7261 9.60479 25.9141 9.54214C25.9873 9.51301 26.0635 9.492 26.1413 9.47949C26.1304 9.5483 26.1021 9.6132 26.0592 9.66807C26.0163 9.72293 25.9601 9.76595 25.8959 9.79306L25.8962 9.79338ZM14.3078 11.9728C14.1999 12.0005 14.0898 12.0188 13.9787 12.0276C13.8768 12.0276 13.7748 11.9572 13.6966 11.965C13.6481 11.968 13.6012 11.9842 13.5612 12.0118C13.5212 12.0394 13.4894 12.0774 13.4694 12.1218C13.4694 12.1218 13.7125 12.5058 13.9563 12.4746C14.046 12.462 14.1288 12.4196 14.1914 12.3542C14.254 12.2887 14.2927 12.2041 14.3013 12.114C14.3001 12.0667 14.3024 12.0194 14.3082 11.9725L14.3078 11.9728ZM21.5446 13.2206C21.1201 13.0939 20.6633 13.1331 20.2666 13.3303C19.7099 13.6675 19.4668 13.9496 19.4827 14.2716C19.4976 14.4964 19.4924 14.722 19.4671 14.9458C19.4515 15.0244 19.2788 15.2055 19.3418 15.2831C19.4048 15.3607 19.7573 15.3457 19.9297 15.2987C20.102 15.2516 20.1569 15.2831 20.1569 15.2831C20.0974 15.4909 19.974 15.6747 19.804 15.8083C19.6069 15.9648 19.3656 16.0556 19.1142 16.068C19.0045 16.0524 18.5731 15.9738 18.4556 16.0524C18.3303 16.131 18.1654 16.2796 18.1813 16.4364C18.1972 16.5932 18.2599 16.6247 18.2599 16.6247C18.2599 16.6247 18.354 16.4523 18.4323 16.4523C18.4798 16.4523 18.5271 16.4575 18.5735 16.4679C18.5735 16.4679 18.5735 16.6562 18.6832 16.711C18.7929 16.7737 18.9104 16.7266 19.0516 16.6169C19.1913 16.4947 19.3538 16.4015 19.5297 16.3426H19.7021C19.696 16.3669 19.6843 16.3895 19.6679 16.4085C19.6516 16.4276 19.6311 16.4425 19.608 16.4523C19.5294 16.4848 19.3337 16.6091 19.3483 16.712C19.3586 16.7787 19.3919 16.8396 19.4424 16.8844C19.4424 16.8844 19.5051 16.7591 19.5836 16.7591C19.6466 16.7607 19.7095 16.7659 19.7719 16.7746C19.7719 16.7746 19.7719 16.9314 19.8972 16.9314C20.0225 16.9314 20.1569 16.7746 20.2656 16.6883C20.3205 16.6425 20.3876 16.6137 20.4586 16.6054C20.5296 16.597 20.6015 16.6095 20.6655 16.6412C20.7855 16.7227 20.9221 16.7763 21.0654 16.798C21.2222 16.798 21.2693 16.7195 21.3397 16.7195C21.4183 16.7195 21.4183 16.7821 21.4809 16.8136C21.5436 16.8451 21.6377 16.5942 21.5751 16.4922C21.5241 16.4238 21.4558 16.3703 21.3772 16.3372C21.2986 16.3041 21.2126 16.2926 21.1281 16.304C21.002 16.3587 20.8656 16.3855 20.7282 16.3825C20.6739 16.386 20.6198 16.3748 20.5714 16.3501C20.539 16.2352 20.5336 16.1145 20.5558 15.9972C20.6029 15.8875 20.65 15.9031 20.6655 15.8249L20.6811 15.7463C20.7865 15.7435 20.8911 15.7649 20.9869 15.8089C21.0524 15.8576 21.1277 15.8913 21.2077 15.9076C21.2876 15.9238 21.3702 15.9223 21.4494 15.9031C21.6611 15.856 21.6926 15.7463 21.6926 15.7463C21.6926 15.7463 21.4887 15.5424 21.5043 15.472C21.5199 15.3935 21.6767 15.4564 21.8257 15.3779C21.8681 15.3613 21.9043 15.3321 21.9296 15.2943C21.9548 15.2564 21.9679 15.2117 21.9669 15.1662C21.9669 15.1662 21.5829 15.0721 21.5358 14.9065C21.5158 14.7652 21.4678 14.6292 21.3946 14.5066C21.3171 14.4203 21.26 14.3178 21.2274 14.2065C21.1948 14.0952 21.1876 13.978 21.2063 13.8636C21.2118 13.7522 21.2475 13.6445 21.3097 13.5519C21.3719 13.4594 21.4581 13.3856 21.5592 13.3384C21.6062 13.315 21.6689 13.2679 21.5436 13.2209M11.1955 12.3724C11.1485 12.435 11.2582 12.5214 11.2975 12.5918C11.3445 12.6622 11.265 12.7408 11.1027 12.8034C10.9404 12.8661 11.0163 13.0544 11.0323 13.1874C11.0482 13.3205 10.9998 13.5715 10.9303 13.5166C10.8863 13.4719 10.854 13.417 10.8362 13.3568C10.8185 13.2966 10.8158 13.233 10.8284 13.1715C10.844 12.9911 10.6336 12.8109 10.4678 12.756C10.3032 12.6934 10.2168 12.8187 10.273 12.8424C10.3385 12.864 10.3959 12.9049 10.4376 12.9599C10.4846 13.0303 10.3749 13.0462 10.273 13.1715C10.1711 13.289 10.3593 13.5322 10.4924 13.54C10.6258 13.5555 10.7119 13.7594 10.7119 13.8535C10.7119 13.9399 10.6414 13.8691 10.5171 13.838C10.3904 13.8045 10.2566 13.8099 10.1331 13.8535C9.96853 13.9006 9.8666 14.2375 9.95262 14.2534C10.0454 14.2491 10.1363 14.2251 10.2191 14.183L10.2662 14.2849C10.3133 14.3869 10.6112 14.3174 10.6817 14.3554C10.7521 14.4024 10.6973 14.5044 10.6346 14.5359C10.572 14.5673 10.6022 14.8809 10.5875 14.9984C10.5729 15.1159 10.6502 14.9358 10.3928 15.2101C10.1419 15.4766 10.5733 15.6726 10.6122 15.6882C10.6593 15.7038 10.6749 15.7586 10.6749 15.8528C10.6749 15.9391 10.5729 16.0644 10.6904 16.0475C10.808 16.0307 10.9021 15.9456 10.9021 15.8671C10.9109 15.7338 10.9632 15.6071 11.0511 15.5064C11.1686 15.373 11.0355 14.9419 11.004 14.8572C10.9725 14.7725 11.0511 14.7397 11.1374 14.6767C11.2726 14.6273 11.4218 14.6329 11.5529 14.6923C11.6704 14.7394 12.2346 15.1078 12.2346 15.1078L12.2502 15.0059C12.2657 14.904 12.3836 14.5589 12.3836 14.5589C12.3434 14.5056 12.2988 14.4557 12.2502 14.4099C12.0602 14.275 11.845 14.1796 11.6175 14.1294C11.5421 14.1153 11.4704 14.0858 11.407 14.0426C11.3436 13.9994 11.2898 13.9435 11.2491 13.8785C11.202 13.7766 11.3354 13.4945 11.4844 13.2514C11.5438 13.1594 11.581 13.0549 11.5932 12.9461C11.6054 12.8373 11.5923 12.7271 11.5549 12.6243C11.5393 12.3733 11.1942 12.3733 11.1942 12.3733M13.1464 12.6791C12.9835 12.675 12.8209 12.6619 12.6595 12.6398C12.4916 12.62 12.3216 12.631 12.1577 12.6723C12.0479 12.7272 11.8675 12.782 11.9223 12.8057C11.9954 12.851 12.0795 12.8754 12.1654 12.8762C12.3652 12.8816 12.565 12.8658 12.7614 12.8291C12.8921 12.7867 13.0203 12.7369 13.1454 12.6801M20.5857 11.2375C20.1339 11.4175 19.6734 11.5745 19.2058 11.7079C18.9161 11.7779 18.6231 11.8329 18.3277 11.8725H18.2024C18.2024 12.0179 18.184 12.1627 18.1476 12.3035L18.1005 12.3899C18.6568 12.3948 19.2041 12.249 19.6843 11.9679C20.3822 11.5135 20.6642 11.3187 20.586 11.2388M17.9989 12.6421C17.9952 12.7847 17.9659 12.9254 17.9126 13.0576H17.9674C18.1526 13.0517 18.3343 13.0062 18.5004 12.9242C18.7669 12.7989 19.1276 12.5022 19.1353 12.399C19.1431 12.2958 19.1353 12.399 18.9237 12.4775C18.6185 12.5488 18.31 12.6037 17.9989 12.6421ZM13.681 12.1763C13.6986 12.2098 13.7196 12.2413 13.7437 12.2704C13.7687 12.2982 13.8017 12.3176 13.8382 12.326C13.8747 12.3344 13.9128 12.3315 13.9475 12.3175C14.0261 12.2941 14.1121 12.1292 14.1121 12.1292C14.1121 12.1292 14.1355 12.1214 14.065 12.137C13.9946 12.1526 13.9631 12.1292 13.8534 12.1137C13.8219 12.1122 13.7905 12.117 13.7609 12.1277C13.7313 12.1385 13.7042 12.155 13.681 12.1763Z" fill="white"/>
<path d="M9.34521 23.9203L13.1554 23.5126L13.3826 25.6531L12.7396 25.7235L12.575 24.2105L11.6733 24.3047L11.8145 25.6141L11.1711 25.6842L11.0299 24.3748L9.40689 24.5471L9.34424 23.92M9.58737 25.88L9.72078 26.4678L10.4349 26.311L10.3015 25.7232L9.58737 25.88ZM12.6607 28.9926C12.4654 29.1122 12.2405 29.1748 12.0115 29.1731C11.9303 29.1691 11.8509 29.1482 11.7782 29.1118C11.7055 29.0753 11.6413 29.0241 11.5895 28.9614C11.5196 28.8748 11.4728 28.7718 11.4536 28.662C11.4344 28.5523 11.4434 28.4396 11.4798 28.3343C11.6184 28.0041 11.8493 27.721 12.1449 27.5189C12.397 27.2771 12.7172 27.1185 13.0623 27.0644C13.1747 27.0529 13.2882 27.0699 13.3923 27.1137C13.4964 27.1576 13.5879 27.2269 13.6582 27.3154C13.7081 27.3747 13.7456 27.4434 13.7685 27.5174C13.7914 27.5915 13.7993 27.6693 13.7916 27.7464C13.7729 27.9282 13.696 28.099 13.5722 28.2333L14.1052 28.6096C14.2917 28.3901 14.4162 28.1249 14.4658 27.8412C14.4856 27.6777 14.4714 27.5118 14.4242 27.354C14.377 27.1962 14.2978 27.0498 14.1916 26.9239C14.0719 26.7653 13.9166 26.6372 13.7381 26.55C13.5596 26.4628 13.3631 26.419 13.1645 26.4221C12.617 26.455 12.097 26.6735 11.6905 27.0417C11.2636 27.3531 10.9564 27.8014 10.8202 28.3119C10.7756 28.4987 10.7759 28.6934 10.8211 28.8801C10.8662 29.0668 10.9549 29.2402 11.0799 29.386C11.264 29.6275 11.5331 29.79 11.8327 29.8405C12.192 29.8769 12.5538 29.8002 12.8675 29.621L12.6636 28.9939M12.8584 30.8049L13.3914 31.0792L13.7287 30.4299L13.1957 30.1557L12.8584 30.8049ZM14.8732 31.6751L15.5004 31.7537L15.712 30.0917L16.9507 30.2485L16.739 31.9105L17.3662 31.989L17.8531 28.1866L17.226 28.108L17.0312 29.6054L15.7925 29.4487L15.9873 27.9513L15.3585 27.8714L14.8716 31.6738M21.3711 31.6034L19.5923 27.9815L18.9259 28.0756L18.2517 32.0426L18.9181 31.9484L19.0515 31.0548L20.298 30.8824L20.6901 31.7056L21.3718 31.6037M19.1609 30.3884L19.3804 28.9222L20.0075 30.2706L19.1609 30.3884ZM22.5164 31.1411L23.0033 30.812L21.6 28.7501L24.054 30.0985L24.5773 29.7359L22.4212 26.5684L21.9343 26.8976L23.3769 29.0143L20.8774 27.6267L20.3678 27.9717L22.516 31.1392M24.6876 27.6984C25.5108 28.0042 26.0987 27.8081 26.4359 27.1183C26.5248 26.9672 26.5811 26.7991 26.6014 26.625C26.6216 26.4508 26.6053 26.2744 26.5535 26.1069C26.4344 25.8228 26.2135 25.5935 25.9341 25.4638C25.754 25.3711 25.5563 25.3177 25.354 25.307C25.1822 25.3049 25.0125 25.3453 24.86 25.4245C24.6471 25.5587 24.4567 25.7254 24.2955 25.9186C24.1686 26.0847 24.0117 26.2256 23.8329 26.3341C23.7881 26.3573 23.7383 26.3694 23.6878 26.3694C23.6374 26.3694 23.5876 26.3573 23.5428 26.3341C23.4953 26.3111 23.4541 26.277 23.4227 26.2346C23.3913 26.1923 23.3706 26.143 23.3623 26.091C23.3411 25.9526 23.3689 25.8112 23.4408 25.691C23.498 25.5605 23.5973 25.4528 23.7229 25.3853C23.8751 25.3391 24.0387 25.3474 24.1855 25.4086L24.4364 24.8208C24.2985 24.7417 24.1449 24.6936 23.9865 24.6801C23.8281 24.6665 23.6686 24.6877 23.5192 24.7422C23.3698 24.7967 23.2342 24.8832 23.1217 24.9956C23.0093 25.1081 22.9228 25.2437 22.8682 25.3931C22.7687 25.5818 22.715 25.7913 22.7114 26.0046C22.7143 26.1895 22.7715 26.3695 22.876 26.522C22.9909 26.6831 23.1447 26.8125 23.323 26.8982C23.4792 26.975 23.6508 27.0151 23.8248 27.0158C23.9874 27.0192 24.1486 26.9843 24.2952 26.9138C24.4835 26.8028 24.6528 26.6626 24.797 26.4983C24.929 26.3493 25.07 26.2084 25.219 26.0763C25.2794 26.0258 25.3527 25.9932 25.4306 25.9822C25.5093 25.9758 25.5882 25.9921 25.6579 26.0293C25.7225 26.0589 25.7798 26.1024 25.8259 26.1565C25.8719 26.2107 25.9055 26.2743 25.9244 26.3428C25.9641 26.5019 25.9417 26.6701 25.8617 26.8132C25.6894 27.1583 25.3748 27.2602 24.9051 27.1112L24.6857 27.699M27.7301 22.335L23.7239 22.8147L23.5905 23.4811L27.1108 25.4333L27.2442 24.7747L26.4444 24.3527L26.6953 23.1218L27.5971 23.0277L27.7301 22.335ZM25.8474 24.0284L24.5383 23.3305L26.0201 23.1815L25.8474 24.0284Z" fill="white"/>
</g>
<defs>
<clipPath id="clip0_2_2510">
<rect width="40" height="40" fill="white"/>
</clipPath>
</defs>
</svg>
