<svg width="39" height="40" viewBox="0 0 39 40" fill="none" xmlns="http://www.w3.org/2000/svg">
<g clip-path="url(#clip0_2_2565)">
<path d="M0.47791 24.6091C0.391135 24.2297 0.831827 23.9908 1.1005 24.2663L15.3403 38.8713C15.609 39.1468 15.376 39.5988 15.0061 39.5098C7.82008 37.7809 2.16364 31.9794 0.47791 24.6091ZM0.000737625 18.7556C-0.00614344 18.869 0.0353978 18.9796 0.113671 19.0599L20.4166 39.8834C20.4949 39.9637 20.6028 40.0064 20.7133 39.9992C21.6372 39.9402 22.5438 39.8152 23.4286 39.6289C23.7267 39.5661 23.8303 39.1903 23.6151 38.9696L1.00462 15.7794C0.789395 15.5586 0.423064 15.6649 0.361833 15.9707C0.180126 16.8781 0.0582878 17.808 0.000737625 18.7556ZM1.64226 11.8822C1.57733 12.0317 1.6104 12.2064 1.72325 12.3222L26.9859 38.2325C27.0988 38.3483 27.2691 38.3822 27.4149 38.3156C28.1115 37.9974 28.7866 37.6385 29.4372 37.242C29.6526 37.1108 29.6858 36.8073 29.5087 36.6257L3.28991 9.73468C3.11281 9.55304 2.81695 9.58712 2.68902 9.80796C2.3024 10.4753 1.95253 11.1677 1.64226 11.8822ZM4.93689 7.2296C4.79255 7.08156 4.78362 6.84412 4.91962 6.68796C8.494 2.58372 13.6934 0 19.4812 0C30.2612 0 39 8.96292 39 20.0192C39 25.9554 36.4809 31.2882 32.4792 34.9542C32.327 35.0937 32.0955 35.0845 31.9511 34.9365L4.93689 7.2296Z" fill="#222326"/>
</g>
<defs>
<clipPath id="clip0_2_2565">
<rect width="39" height="40" fill="white"/>
</clipPath>
</defs>
</svg>
